<?xml version='1.0' encoding='utf-8'?>
<svg xmlns="http://www.w3.org/2000/svg" version="1.1" id="Layer_1" x="0px" y="0px" viewBox="0 0 1000 1000" style="enable-background:new 0 0 1000 1000;"> <style type="text/css"> .st0{fill:#413633;} .st1{fill:#EB6B73;} .st2{fill:#F5E5D4;} .st3{fill:#9E2D29;} .st4{fill:#F7E7E7;} </style> <path class="st0" d="M941.98,571.98c-8.37,26.46-21.52,50.41-40.57,70.93c-8.69,9.36-17.96,17.98-28.26,25.52 c-29.86,21.85-63.68,33.77-99.82,39.9c-9.31,1.58-18.63,3.08-27.95,4.64c-4.09,0.69-3.06,4-2.75,6.34c2.32,17.52,5.23,35,4.3,52.75 c-1.31,24.83-6.1,48.72-16.57,71.67c-16.9,37.02-44.56,63.49-78.14,85.03c-25.06,16.07-52.32,26.66-80.81,34.38 c-18.3,4.96-36.95,8.19-55.85,10.19c-24.1,2.55-48.22,1.97-72.27,0.77c-15.56-0.78-31.08-3.38-46.46-6.5 c-15.27-3.1-30.21-7.06-44.83-12.39c-10.73-3.91-21.08-8.58-31.28-13.77c-12.25-6.23-24.06-13.07-35.02-21.32 c-29.27-22.04-52.44-48.8-64.97-83.86c-4.69-13.12-7.44-26.63-8.97-40.4c-1.24-11.18-0.88-22.41-0.9-33.65 c-0.02-12.14,0.93-24.13,2.9-36.08c0.46-2.82,0.7-5.08-3.88-5.48c-10.21-0.89-20.43-2.33-30.46-4.44 c-50.61-10.65-96.02-30.5-127.23-74.32c-15.76-22.14-24.85-47.05-30.32-73.62c-4.62-22.44-5.19-45.09-4.08-67.64 c0.97-19.74,3.4-39.48,7.6-58.99c4.17-19.34,9.66-38.26,16.17-56.85c19.97-57.02,52-106.65,93.15-150.7 c31.88-34.12,68.02-63.04,107.94-86.88c42.17-25.18,87.25-44,135.43-54.66c23.86-5.28,47.94-9.03,72.33-11.29 c20.84-1.93,41.62-2.65,62.42-0.86c21.04,1.81,42.02,4.04,62.92,7.52c21.07,3.51,41.73,8.39,61.99,14.65 c44.59,13.78,86.06,34.37,124.84,60.36c23.36,15.66,45.41,32.97,65.3,52.83c29.8,29.76,55.39,62.77,75.69,99.81 c14.91,27.2,26.41,55.72,34.65,85.59c5.37,19.46,9.37,39.25,11.86,59.24C950.22,461.46,959.32,517.12,941.98,571.98z"/> <path class="st1" d="M243.5,176.07c1.1-2.22,3.34-3.06,5.29-4.16c36.87-20.77,74.71-39.3,115.65-50.89 c15.9-4.5,31.98-8.49,48.26-10.68c13.03-1.75,26.18-3.36,39.39-4.31c15.95-1.15,31.86-2.03,47.78-1.53 c19.19,0.6,38.26,2.72,57.34,5.19c44.95,5.8,87.6,18.77,128.29,38.57c4.22,2.05,8.79,3.39,12.51,6.42 c-5.33,15.34-8.91,30.49-4.85,47.18c9.46,38.88,51.73,70.06,91.69,66.49l0.49,0.09l0.48-0.16c15.44-0.83,29.32-5.92,41.6-15.35 c18.52,19.73,34.92,41.12,48.49,64.5c25.03,43.11,41.99,89.17,48.79,138.73c0.77,5.62,2.06,11.22,1.62,16.97 c-22.26,4.37-40.93,15.31-56.81,31.25c-10.11,10.15-17.88,21.79-20.77,36.03c-5.63,27.79,4.79,49.41,26.26,66.59 c4.88,3.9,10.48,6.84,14.9,11.35c-0.26,0.74-0.53,1.49-0.78,2.23c-2.9,2.21-5.49,0.14-8.02-0.8 c-30.29-11.24-60.97-21.18-92.41-28.78c-21.58-5.22-43.07-10.77-64.91-14.79c-30.68-7.84-61.3-15.89-92.05-23.44 c-25.11-6.17-50.57-10.08-76.36-12.6c-32.78-3.2-65.56-4.12-98.39-3.02c-56.65,1.91-112.03,12.07-166.7,26.67 c-16.88,4.51-33.36,10.49-50.59,13.66c-0.51,0.09-0.93,0.63-1.4,0.97c-3.33-0.16-6.34,1.16-9.42,2.07 c-14.03,4.16-28.07,8.32-42.04,12.68c-33.08,10.32-65.91,21.23-95.8,39.36c-3.52,2.14-7.09,4.52-11.47,4.77l-0.3-0.32 c-0.09-0.36-0.32-0.6-0.69-0.7l-1.71-2.81c10.3-10,17.91-21.52,20.23-36c0.2-0.33,0.23-0.68,0.1-1.05c0.7-4.98,0.75-9.96-0.08-14.93 c0.26-3.23-0.42-6.26-1.94-9.11c0.07-1.67-0.23-3.23-1.35-4.55c-0.41-3.01-1.26-5.87-3.14-8.33c0.05-0.31-0.03-0.57-0.24-0.81 c-0.81-3.09-2.03-5.95-4.38-8.22l-0.73-1.11c-0.47-1.73-1.25-3.27-2.71-4.39l-1.49-2.2c-0.29-4.96-4.71-6.56-7.64-9.38 c-0.74-0.71-3.07-2.97-3.49-3.38c-7.68-8.88-17.42-15.02-27.44-20.79c-0.03-26.43,4.3-52.22,11.51-77.58 c1.26-0.33,2.7-0.38,3.76-1.05c13.85-8.75,22.41-20.82,23.28-37.61c0.47-9.09-2.15-17.64-4.72-26.19 c3.76-13.26,11.5-24.6,17.77-36.63c3.04-5.83,5.65-11.99,10.15-16.98c6.87,2.96,12.66,8.3,20.42,9.29c1.71,1.28,3.67,1.75,5.76,1.81 l2.26,0.42c0.98,0.97,2.19,1.02,3.45,0.83l3.41,0.27c1.74,1.16,3.66,1.05,5.6,0.76c0.83,0.03,1.65,0.07,2.48,0.08 c1.08,0.01,2.16-0.01,3.24-0.03c16.64-0.39,32.28-4.96,46.48-13.58c29.76-18.05,49.44-43.47,54.72-78.51 C255.17,214.33,250.94,194.89,243.5,176.07z M734.61,465.11c4.3-15.52,2.22-30.38-4.56-44.77c-2.74-7.8-7.06-14.7-12.3-21.03 c-20.59-24.88-60.76-41.02-98.57-21.63c-17.82,9.14-31.97,22.54-40.23,40.45c-6.32,13.69-8.25,28.61-4.8,44.38 c9.39,42.89,54.7,72.5,95.18,64.35c26.12-5.26,45.54-19.92,58.48-43.19c1.76-2.08,2.83-4.47,3.28-7.15c0.2-0.2,0.26-0.44,0.19-0.71 c1.74-2.55,2.64-5.39,2.95-8.44L734.61,465.11z M458.72,113.24c-2.16-0.43-4.17,0.3-6.13,0.97c-27.76,9.47-49.55,26.15-63.14,52.61 c-6.3,12.27-9.34,25.38-8.38,39.12c1.64,23.34,9.62,43.75,27.73,59.72c12.52,11.05,27.03,18.07,42.48,23.53 c10.28,3.63,21.04,2.79,31.45,1.21c50.55-7.65,87.08-46.42,82.46-99.66c-4.81-55.39-60.23-82.16-96.81-79.38 c-0.69,0.05-1.38,0.08-2.08,0.12l-5.93,1.05L458.72,113.24z M218.07,403.46c-20.63-1.17-38.12,5.77-53.25,18.78 c-19.89,17.11-31.19,38.66-30.78,65.21c0.18,11.7,4.53,22.76,10.63,32.72c16.21,26.44,39.58,41.3,71.08,40.72 c20.03-0.37,37.74-8.21,53.22-20.83c42.85-34.92,37.64-88.06-3.06-120.87C252.57,408.42,236.03,401.74,218.07,403.46z M342.39,337.17c-19.78-2.23-39.09,18.13-38.36,37.23c0.69,18.17,14.63,38.61,36.47,38.33c21.15-0.28,38.96-17.71,39.13-38.69 C379.81,351.15,359.49,335.1,342.39,337.17z M858.15,343.14c-9.82,0.02-26.07,7.86-33.67,15.96c-7.58,8.08-6.74,17.92,2.68,23.67 c13.73,8.39,38.01,7.19,49.04-9.54c5.42-8.22,6.13-23.63-8.63-28.55C864.27,343.58,861.02,342.82,858.15,343.14z M472.13,345.35 c-12.77-0.04-23.53,9.02-23.58,19.84c-0.05,12.07,9.19,20.7,22.27,20.8c12.87,0.1,23.19-9.07,23.31-20.71 C494.25,354.23,484.49,345.39,472.13,345.35z M641.81,149.62c0.09-9.77-7.2-17.62-16.33-17.59c-9.05,0.03-17.19,7.97-17.39,16.98 c-0.21,8.99,7.66,16.91,17.06,17.15C634.25,166.4,641.72,158.98,641.81,149.62z M665.82,286.18c-0.09-7.91-5.58-13.61-13.05-13.55 c-7.12,0.06-12.92,6.01-12.86,13.21c0.07,7.92,5.87,13.55,13.81,13.4C660.75,299.1,665.91,293.54,665.82,286.18z M388.49,467.43 c-0.04-5.45-3.94-9.15-9.5-9.01c-5.39,0.14-8.88,3.64-8.96,9.01c-0.09,5.64,3.87,9.6,9.68,9.69 C385.02,477.22,388.54,473.33,388.49,467.43z M777.83,560.84c-0.11-5.81-3.79-9.91-8.85-9.85c-5.52,0.07-9.36,4.32-9.17,10.18 c0.16,5.17,3.98,8.74,9.29,8.71C774.52,569.84,777.94,566.3,777.83,560.84z M840.51,436.1c4.51-0.14,8.24-4.4,8.06-9.21 c-0.17-4.63-3.85-8.17-8.44-8.14c-4.94,0.04-8.46,3.74-8.33,8.76C831.94,432.32,835.92,436.24,840.51,436.1z"/> <path class="st2" d="M475.13,950.76c-17.02-0.11-34.08-0.26-50.88-2.85c-16.26-2.51-32.34-6.12-48.22-10.73 c-30.88-8.96-58.8-23.34-83.81-43.51c-24.19-19.51-41.57-43.82-50.36-73.63c-3.21-10.89-6.02-22.08-6.32-33.73 c-0.57-22.31,0.99-44.34,4.22-66.47c4.14-28.41,8.94-56.68,13.83-84.95c1.79-10.37,3.32-20.79,4.88-31.2 c0.48-3.21,2.58-4.84,5.24-5.98c24.97-10.73,50.42-20.15,76.64-27.41c22.29-6.18,44.95-10.7,67.87-13.63 c15.14-1.93,30.39-2.98,45.66-3.96c18.62-1.19,37.18-1.89,55.73-0.71c23.2,1.48,46.35,3.46,69.34,7.59 c16.02,2.88,32.07,5.73,47.75,9.89c25.03,6.64,49.53,15.05,73.15,25.86c3.66,1.67,4.36,4.6,4.79,7.55 c3.22,21.72,6.84,43.4,9.06,65.23c1.65,16.23,3.66,32.44,5.15,48.7c1.61,17.51,3.16,35,3.22,52.56 c0.19,51.03-21.27,91.58-60.66,123.1c-33.08,26.47-71.28,41.81-112.27,50.96C524.77,948.88,500.08,950.93,475.13,950.76z M626.77,750.79c5.64-6.32,9.42-13.61,11.2-21.89c3.45-16.05,3.13-31.79-5.04-46.53c-8.57-15.47-25.47-23.65-40.65-19.42 c-20.29,5.65-30.45,21.84-32.23,40.63c-2.09,22.06,3.86,41.6,23.28,54.98c-4.74,5.92-7.35,12.82-9.08,20.08 c-6.78,28.51,16.75,53.91,45.66,49.35c28.49-4.49,43.63-34.14,29.88-58.55C644.59,760.19,636.23,754.8,626.77,750.79z M374.4,758.33 c12.09-9.75,18.24-22.25,20.21-37.81c2.06-16.31-1.07-30.77-10.83-43.63c-8.43-11.1-20.48-15.84-33.94-13.89 c-16.87,2.45-27.35,14.17-31.78,29.62c-5.86,20.48-3.72,40.58,9.73,58.3c-5.64,4.97-11.84,9.29-15.73,16.1 c-7.37,12.88-9.87,25.98-1.88,39.35c7.84,13.1,19.57,19.78,35.05,19.48c23.15-0.45,42.3-18.17,41.16-41.75 C385.88,773.54,382.92,764.82,374.4,758.33z M451.35,739.02c0-1.52,0.11-3.05-0.02-4.56c-0.37-4.45-2.37-8.09-7.15-7.98 c-4.82,0.11-6.38,3.87-6.56,8.33c-0.18,4.18,0.37,8.24,1.19,12.33c3.79,18.96,23.88,35.76,44.88,30.63 c22-5.38,32.07-23.02,31.66-42.58c-0.13-6.1-2.76-8.85-7.43-8.58c-5.74,0.33-6.34,4.42-6.36,8.87c-0.03,5.49-0.27,10.99-2.9,15.94 c-5.77,10.89-18.27,17.08-29.15,13.79C459.38,762.15,449.59,748.98,451.35,739.02z"/> <path class="st3" d="M723.78,576.21c21.85,4.01,43.34,9.57,64.91,14.79c31.44,7.61,62.12,17.54,92.41,28.78 c2.52,0.94,5.11,3.01,8.02,0.8c0.82,2.51-1.03,3.83-2.38,5.38c-20.28,23.31-45.09,39.7-74.39,49.6 c-22.06,7.46-44.49,12.94-67.61,15.8c-4.34,0.54-5.18-0.95-5.6-4.7c-3.09-27.53-6.67-54.99-10.8-82.4 C726.93,594.9,724.67,585.66,723.78,576.21z"/> <path class="st4" d="M147.68,326.67l-2.48-0.08c-1.74-1.18-3.44-2.7-5.6-0.76l-3.41-0.27c-0.73-2.02-1.88-2.3-3.45-0.83l-2.26-0.42 c-1.34-2.44-3-3.87-5.76-1.81c-7.77-0.99-13.55-6.34-20.42-9.29c4.53-8.8,10.61-16.58,16.65-24.31 c33.92-43.44,73.92-80.41,119.54-111.3c0.92-0.63,2.01-1.01,3.02-1.51c7.44,18.82,11.68,38.26,8.63,58.47 c-5.28,35.04-24.96,60.46-54.72,78.51c-14.2,8.61-29.85,12.96-46.48,13.58C149.83,325.75,148.75,325.76,147.68,326.67z"/> <path class="st3" d="M79.55,637.33c4.38-0.24,7.94-2.63,11.47-4.77c29.89-18.12,62.73-29.03,95.8-39.36 c13.97-4.36,28.01-8.52,42.04-12.68c3.07-0.91,6.09-2.23,9.42-2.07c-0.66,13.37-5.34,25.97-7.62,39.05 c-3.12,17.96-4.24,36.11-6.65,54.12c-1.03,7.7-2.4,15.36-3.74,23.02c-0.59,3.37-2.79,4.77-6.19,4.38 c-24.37-2.82-48.47-6.91-71.29-16.37c-22.48-9.32-43.21-21.36-59.67-39.75C81.63,641.24,79.47,639.99,79.55,637.33z"/> <path class="st4" d="M827.41,252.93c-12.28,9.43-26.15,14.51-41.6,15.35c-0.34-0.28-0.67-0.26-0.97,0.07 c-39.96,3.57-82.23-27.61-91.69-66.49c-4.06-16.69-0.48-31.84,4.85-47.18c14.85,6.47,28.44,15.16,42.1,23.74 C772.85,198.97,801.74,224.06,827.41,252.93z"/> <path class="st4" d="M889.9,618.35c-4.42-4.5-10.03-7.44-14.9-11.35c-21.47-17.19-31.89-38.8-26.26-66.59 c2.89-14.25,10.66-25.88,20.77-36.03c15.88-15.94,34.55-26.88,56.81-31.25c2.02,12.02,1.72,24.14,1.25,36.23 c-1.48,38.52-11.14,74.43-34.54,105.83C892.14,616.38,891.48,617.83,889.9,618.35z"/> <path class="st4" d="M93.8,567.85c1.12,1.32,1.42,2.88,1.35,4.55c-2.26,3.66-0.29,6.41,1.94,9.11c0.83,4.97,0.67,9.93,0.08,14.93 c-0.04,0.35-0.06,0.7-0.1,1.05c-2.32,14.48-9.92,26-20.23,36c-11.03-14.21-18.82-30.08-24.55-47.07 c-8.46-25.08-11.3-50.84-9.76-77.18c10.03,5.77,19.77,11.92,27.44,20.79c0.43,0.41,2.76,2.66,3.49,3.38 c0.67,4.66,3.61,7.46,7.64,9.38l1.49,2.2c-1.58,2.99,0.04,4.02,2.71,4.39l0.73,1.11c-0.06,3.55,0.03,7.02,4.38,8.22 c0.2,0.23,0.28,0.5,0.24,0.81C90.66,562.69,90.3,566,93.8,567.85z"/> <path class="st2" d="M76.37,366.81c2.57,8.55,5.2,17.1,4.72,26.19c-0.87,16.79-9.43,28.87-23.28,37.61 c-1.05,0.67-2.5,0.71-3.76,1.05c1.35-9.7,4.96-18.78,8.03-27.96C66.28,391.21,70.66,378.74,76.37,366.81z"/> <path class="st3" d="M78.56,636.3c0.36,0.1,0.59,0.34,0.69,0.7C78.81,636.97,78.58,636.74,78.56,636.3z"/> <path class="st4" d="M468.39,111.36c36.53-3.4,92,23.99,96.81,79.38c4.62,53.24-31.91,92.01-82.46,99.66 c-10.41,1.58-21.17,2.42-31.45-1.21c-15.44-5.46-29.95-12.48-42.48-23.53c-18.11-15.98-26.09-36.38-27.73-59.72 c-0.96-13.73,2.07-26.85,8.38-39.12c13.59-26.46,35.39-43.13,63.14-52.61c1.96-0.67,3.96-1.39,6.13-0.97l1.65-0.71l5.93-1.05 C467.04,112.08,467.73,112.02,468.39,111.36z"/> <path class="st4" d="M218.07,403.46c17.96-1.72,34.49,4.96,47.85,15.73c40.69,32.81,45.91,85.95,3.06,120.87 c-15.48,12.62-33.2,20.46-53.22,20.83c-31.5,0.58-54.87-14.28-71.08-40.72c-6.1-9.95-10.45-21.02-10.63-32.72 c-0.41-26.55,10.88-48.1,30.78-65.21C179.95,409.23,197.44,402.29,218.07,403.46z"/> <path class="st4" d="M727.81,483.66c-12.94,23.27-32.36,37.93-58.48,43.19c-40.48,8.15-85.79-21.46-95.18-64.35 c-3.45-15.77-1.52-30.7,4.8-44.38c8.26-17.91,22.41-31.31,40.23-40.45c37.81-19.39,77.98-3.25,98.57,21.63 c5.24,6.33,9.56,13.23,12.3,21.03c0,3.37-0.45,6.74,0.84,10.05c3.79,9.7,4.76,19.69,2.81,29.94c-0.33,1.73-0.39,3.38,0.91,4.78 l-0.38,2.26c-3.83,1.82-3.03,5.25-2.95,8.44c0.07,0.27,0.01,0.51-0.19,0.71C727.47,477.74,727.73,480.74,727.81,483.66z"/> <path class="st4" d="M342.39,337.17c17.1-2.07,37.42,13.99,37.24,36.87c-0.17,20.98-17.98,38.41-39.13,38.69 c-21.84,0.29-35.77-20.16-36.47-38.33C303.3,355.29,322.61,334.93,342.39,337.17z"/> <path class="st2" d="M858.15,343.14c2.87-0.32,6.13,0.44,9.42,1.54c14.76,4.92,14.04,20.33,8.63,28.55 c-11.03,16.73-35.3,17.93-49.04,9.54c-9.42-5.75-10.26-15.59-2.68-23.67C832.07,350.99,848.32,343.16,858.15,343.14z"/> <path class="st2" d="M472.13,345.35c12.36,0.04,22.12,8.88,22.01,19.93c-0.12,11.64-10.45,20.81-23.31,20.71 c-13.08-0.1-22.31-8.73-22.27-20.8C448.6,354.37,459.36,345.32,472.13,345.35z"/> <path class="st2" d="M641.81,149.62c-0.09,9.36-7.56,16.78-16.67,16.54c-9.39-0.24-17.26-8.16-17.06-17.15 c0.21-9.01,8.34-16.95,17.39-16.98C634.61,132,641.9,139.85,641.81,149.62z"/> <path class="st2" d="M665.82,286.18c0.08,7.36-5.07,12.91-12.1,13.05c-7.94,0.16-13.74-5.47-13.81-13.4 c-0.06-7.19,5.74-13.15,12.86-13.21C660.25,272.57,665.74,278.27,665.82,286.18z"/> <path class="st2" d="M388.49,467.43c0.05,5.9-3.47,9.78-8.78,9.7c-5.81-0.09-9.77-4.05-9.68-9.69c0.08-5.37,3.57-8.87,8.96-9.01 C384.55,458.29,388.45,461.98,388.49,467.43z"/> <path class="st2" d="M533.82,418.41c0.05,5.9-3.47,9.78-8.78,9.7c-5.81-0.09-9.77-4.05-9.68-9.69c0.08-5.37,3.57-8.87,8.96-9.01 C529.89,409.27,533.78,412.96,533.82,418.41z"/> <path class="st2" d="M582.31,311.38c0.05,5.9-3.47,9.78-8.78,9.7c-5.81-0.09-9.77-4.05-9.68-9.69c0.08-5.37,3.57-8.87,8.96-9.01 C578.37,302.24,582.27,305.93,582.31,311.38z"/> <path class="st2" d="M145.41,578.09c0.05,5.9-3.47,9.78-8.78,9.7c-5.81-0.09-9.77-4.05-9.68-9.69c0.08-5.37,3.57-8.87,8.96-9.01 C141.48,568.95,145.37,572.64,145.41,578.09z"/> <path class="st2" d="M97.46,476.79c0.05,5.9-3.47,9.78-8.78,9.7c-5.81-0.09-9.77-4.05-9.68-9.69c0.08-5.37,3.57-8.87,8.96-9.01 C93.52,467.64,97.42,471.33,97.46,476.79z"/> <path class="st2" d="M457.78,499.66c0.05,5.9-3.47,9.78-8.78,9.7c-5.81-0.09-9.77-4.05-9.68-9.69c0.08-5.37,3.57-8.87,8.96-9.01 C453.85,490.51,457.74,494.2,457.78,499.66z"/> <path class="st2" d="M573.08,510.37c0.05,5.9-3.47,9.78-8.78,9.7c-5.81-0.09-9.77-4.05-9.68-9.69c0.08-5.37,3.57-8.87,8.96-9.01 C569.14,501.23,573.04,504.92,573.08,510.37z"/> <path class="st2" d="M800.18,490.3c0.05,5.9-3.47,9.78-8.78,9.7c-5.81-0.09-9.77-4.05-9.68-9.69c0.08-5.37,3.57-8.87,8.96-9.01 C796.25,481.15,800.14,484.85,800.18,490.3z"/> <path class="st2" d="M337.29,251.02c0.05,5.9-3.47,9.78-8.78,9.7c-5.81-0.09-9.77-4.05-9.68-9.69c0.08-5.37,3.57-8.87,8.96-9.01 C333.35,241.88,337.24,245.57,337.29,251.02z"/> <path class="st2" d="M262.35,336.64c0.05,5.9-3.47,9.78-8.78,9.7c-5.81-0.09-9.77-4.05-9.68-9.69c0.08-5.37,3.57-8.87,8.96-9.01 C258.42,327.5,262.31,331.19,262.35,336.64z"/> <path class="st2" d="M359.46,165.82c0.05,5.9-3.47,9.78-8.78,9.7c-5.81-0.09-9.77-4.05-9.68-9.69c0.08-5.37,3.57-8.87,8.96-9.01 C355.52,156.68,359.42,160.37,359.46,165.82z"/> <path class="st2" d="M151.63,375.96c0.05,5.9-3.47,9.78-8.78,9.7c-5.81-0.09-9.77-4.05-9.68-9.69c0.08-5.37,3.57-8.87,8.96-9.01 C147.69,366.81,151.59,370.5,151.63,375.96z"/> <path class="st2" d="M777.83,560.84c0.1,5.46-3.31,9-8.73,9.03c-5.32,0.03-9.13-3.54-9.29-8.71c-0.19-5.86,3.65-10.11,9.17-10.18 C774.04,550.93,777.72,555.03,777.83,560.84z"/> <path class="st2" d="M768.82,326.73c0.1,5.46-3.31,9-8.73,9.03c-5.31,0.03-9.13-3.54-9.29-8.71c-0.19-5.86,3.65-10.11,9.17-10.18 C765.02,316.82,768.7,320.92,768.82,326.73z"/> <path class="st2" d="M840.51,436.1c-4.59,0.14-8.57-3.79-8.7-8.59c-0.14-5.02,3.38-8.72,8.33-8.76c4.58-0.04,8.26,3.51,8.44,8.14 C848.75,431.7,845.02,435.97,840.51,436.1z"/> <path class="st2" d="M734.61,465.11c-1.3-1.4-1.24-3.05-0.91-4.78c1.95-10.25,0.98-20.24-2.81-29.94 c-1.29-3.31-0.84-6.68-0.84-10.05C736.83,434.73,738.92,449.59,734.61,465.11z"/> <path class="st2" d="M81.12,542.8c-4.03-1.92-6.97-4.72-7.64-9.38C76.44,536.21,80.83,537.83,81.12,542.8z"/> <path class="st2" d="M90.43,558.71c-4.34-1.2-4.44-4.67-4.38-8.22C88.4,552.76,89.62,555.63,90.43,558.71z"/> <path class="st2" d="M97.09,581.51c-2.24-2.7-4.2-5.45-1.94-9.11C96.67,575.25,97.35,578.28,97.09,581.51z"/> <path class="st2" d="M731.28,475.8c-0.08-3.18-0.88-6.62,2.95-8.44C733.92,470.41,733.02,473.25,731.28,475.8z"/> <path class="st2" d="M93.8,567.85c-3.5-1.85-3.14-5.16-3.14-8.33C92.54,561.98,93.38,564.84,93.8,567.85z"/> <path class="st2" d="M124.71,322.49c2.76-2.06,4.42-0.63,5.76,1.81C128.38,324.24,126.42,323.77,124.71,322.49z"/> <path class="st2" d="M727.81,483.66c-0.08-2.92-0.34-5.92,3.28-7.15C730.64,479.19,729.57,481.59,727.81,483.66z"/> <path class="st2" d="M139.6,325.82c2.17-1.93,3.86-0.41,5.6,0.76C143.26,326.88,141.34,326.98,139.6,325.82z"/> <path class="st2" d="M85.32,549.39c-2.67-0.37-4.29-1.4-2.71-4.39C84.07,546.12,84.85,547.65,85.32,549.39z"/> <path class="st2" d="M132.73,324.72c1.57-1.47,2.72-1.18,3.45,0.83C134.92,325.74,133.72,325.7,132.73,324.72z"/> <path class="st2" d="M147.68,326.67c1.07-0.9,2.15-0.91,3.24-0.03L147.68,326.67z"/> <path class="st2" d="M468.39,111.36c-0.66,0.66-1.35,0.72-2.08,0.12L468.39,111.36z"/> <path class="st2" d="M784.84,268.34c0.3-0.33,0.63-0.35,0.97-0.07l-0.48,0.16L784.84,268.34z"/> <path class="st2" d="M460.38,112.53l-1.65,0.71L460.38,112.53z"/> <path class="st2" d="M71.27,531.26l-1.28-1.23L71.27,531.26z"/> <path class="st2" d="M97.08,597.49l0.1-1.05C97.31,596.81,97.27,597.16,97.08,597.49z"/> <path class="st0" d="M327.79,750.93c-13.46-17.72-15.59-37.82-9.73-58.3c4.42-15.46,14.9-27.17,31.78-29.62 c13.45-1.95,25.51,2.79,33.94,13.89c9.76,12.86,12.9,27.33,10.83,43.63c-1.97,15.55-8.12,28.06-20.21,37.81 c-6.03,2.21-11.84,5.57-18.31,5.78C344.62,764.48,335.22,759.63,327.79,750.93z M362.29,692.12c0.08-10.76-6.23-17.97-15.81-18.08 c-10.76-0.12-18.31,7.16-18.42,17.76c-0.11,10.4,7.89,19.82,16.92,19.93C354.76,711.85,362.21,703.41,362.29,692.12z"/> <path class="st0" d="M583.33,758.55c-19.42-13.38-25.37-32.92-23.28-54.98c1.78-18.79,11.94-34.98,32.23-40.63 c15.18-4.23,32.08,3.96,40.65,19.42c8.17,14.74,8.49,30.47,5.04,46.53c-1.78,8.28-5.56,15.57-11.2,21.89 c-2.21,2.02-4.26,4.28-6.67,6.04C608.27,765.47,595.92,765.04,583.33,758.55z M605.58,692.06c-0.02-11.66-5.47-18.03-15.43-18.02 c-10.62,0.01-18.97,8.11-18.92,18.35c0.05,9.52,9.37,19.84,17.87,19.27C596.92,711.15,606.52,704.59,605.58,692.06z"/> <path class="st1" d="M583.33,758.55c12.59,6.49,24.94,6.92,36.77-1.73c2.41-1.76,4.45-4.01,6.67-6.04 c9.46,4.01,17.81,9.41,23.02,18.64c13.76,24.41-1.39,54.06-29.88,58.55c-28.91,4.56-52.44-20.84-45.66-49.35 C575.98,771.37,578.59,764.47,583.33,758.55z"/> <path class="st1" d="M327.79,750.93c7.43,8.7,16.83,13.56,28.3,13.18c6.47-0.21,12.28-3.57,18.31-5.78 c8.52,6.49,11.48,15.21,12,25.77c1.15,23.58-18,41.3-41.16,41.75c-15.48,0.3-27.22-6.37-35.05-19.48 c-7.99-13.37-5.49-26.46,1.88-39.35C315.96,760.22,322.15,755.9,327.79,750.93z"/> <path class="st0" d="M451.35,739.02c-1.76,9.96,8.03,23.13,18.16,26.18c10.88,3.28,23.39-2.91,29.15-13.79 c2.62-4.95,2.87-10.45,2.9-15.94c0.02-4.46,0.61-8.55,6.36-8.87c4.68-0.27,7.31,2.48,7.43,8.58c0.41,19.56-9.66,37.21-31.66,42.58 c-21,5.13-41.1-11.66-44.88-30.63c-0.82-4.09-1.36-8.15-1.19-12.33c0.19-4.46,1.75-8.22,6.56-8.33c4.78-0.11,6.78,3.53,7.15,7.98 C451.46,735.97,451.36,737.5,451.35,739.02z"/> <path class="st4" d="M362.29,692.12c-0.08,11.29-7.53,19.73-17.31,19.61c-9.03-0.11-17.03-9.53-16.92-19.93 c0.11-10.59,7.66-17.87,18.42-17.76C356.06,674.15,362.36,681.36,362.29,692.12z"/> <path class="st4" d="M605.58,692.06c0.94,12.53-8.66,19.09-16.48,19.61c-8.5,0.57-17.83-9.75-17.87-19.27 c-0.05-10.24,8.3-18.34,18.92-18.35C600.1,674.03,605.55,680.4,605.58,692.06z"/> </svg>